<?xml version="1.0" encoding="utf-8"?>
<!-- Generator: Adobe Illustrator 16.0.4, SVG Export Plug-In . SVG Version: 6.00 Build 0)  -->
<!DOCTYPE svg PUBLIC "-//W3C//DTD SVG 1.1//EN" "http://www.w3.org/Graphics/SVG/1.1/DTD/svg11.dtd">
<svg version="1.1" id="Layer_1" xmlns="http://www.w3.org/2000/svg" xmlns:xlink="http://www.w3.org/1999/xlink" x="0px" y="0px"
	 width="1199.3px" height="170.8px" viewBox="0 0 1199.3 170.8" enable-background="new 0 0 1199.3 170.8" xml:space="preserve">
<g>
	<g>
		<polygon fill="#808285" points="25.2,85.4 25.2,85.4 0,73.6 0,97.3 97.7,144.8 97.7,118.7 34.5,89.7 		"/>
		<polygon fill="#808285" points="8.7,69.3 34.1,81.3 97.7,52.1 97.7,26 		"/>
	</g>
	<g>
		<polygon fill="#808285" points="1174.1,85.4 1174.1,85.4 1199.3,73.6 1199.3,97.3 1101.6,144.8 1101.6,118.7 1164.9,89.7 		"/>
		<polygon fill="#808285" points="1190.6,69.3 1165.3,81.3 1101.6,52.1 1101.6,26 		"/>
	</g>
</g>
<g>
	<g>
		<path d="M130.8,39h45.1c5.5,0,10.6,0.8,15.4,2.5c4.8,1.6,9,4.3,12.7,7.9c3.6,3.6,6.5,8.4,8.6,14.3c2.1,5.9,3.1,13.2,3.1,21.7
			c0,8.6-1,15.8-3.1,21.7c-2.1,5.9-4.9,10.7-8.6,14.3c-3.6,3.6-7.8,6.3-12.7,7.9c-4.8,1.6-10,2.5-15.4,2.5h-45.1V39z M173.2,115.9
			c3.3,0,6.4-0.5,9.3-1.5c2.9-1,5.5-2.6,7.6-5c2.2-2.3,3.9-5.5,5.1-9.3c1.2-3.9,1.9-8.8,1.9-14.7c0-5.9-0.6-10.8-1.9-14.7
			s-2.9-7-5.1-9.4c-2.2-2.3-4.7-4-7.6-5c-2.9-1-6-1.5-9.3-1.5h-23.9v61H173.2z"/>
		<path d="M336.7,54.9h-33.2V39h84.9v15.9h-33.2v76.9h-18.6V54.9z"/>
		<path d="M416.2,129.4c-4.8-1.6-9-4.3-12.7-7.9c-3.6-3.6-6.5-8.4-8.6-14.3c-2.1-5.9-3.1-13.2-3.1-21.7c0-8.6,1-15.8,3.1-21.7
			c2.1-5.9,4.9-10.7,8.6-14.3c3.6-3.6,7.8-6.3,12.7-7.9c4.8-1.6,10-2.5,15.5-2.5h34.5v15.9h-31.8c-2.9,0-5.7,0.4-8.2,1.1
			c-2.6,0.8-4.9,2-7,3.7c-2.1,1.7-3.8,4-5.3,6.9c-1.5,2.9-2.5,6.5-3,10.8h55.3v15.9h-55.3c0.5,4.3,1.5,7.9,3,10.8
			c1.5,2.9,3.2,5.2,5.3,6.9c2.1,1.7,4.4,3,7,3.7c2.6,0.8,5.3,1.1,8.2,1.1h31.8v15.9h-34.5C426.2,131.8,421,131,416.2,129.4z"/>
		<path fill="#808285" d="M495.9,50.3h18.6v18.6h-18.6V50.3z M495.9,102h18.6v18.6h-18.6V102z"/>
		<path d="M568.7,129.4c-4.8-1.6-9-4.3-12.7-7.9s-6.5-8.4-8.6-14.3c-2.1-5.9-3.1-13.2-3.1-21.7c0-8.6,1-15.8,3.1-21.7
			c2.1-5.9,4.9-10.7,8.6-14.3c3.6-3.6,7.8-6.3,12.7-7.9c4.8-1.6,10-2.5,15.5-2.5h34.5v15.9h-31.8c-3.3,0-6.4,0.5-9.3,1.5
			s-5.5,2.6-7.6,5c-2.2,2.3-3.9,5.5-5.1,9.4s-1.9,8.8-1.9,14.7c0,5.9,0.6,10.8,1.9,14.7c1.2,3.9,2.9,7,5.1,9.3c2.2,2.3,4.7,4,7.6,5
			c2.9,1,6,1.5,9.3,1.5h31.8v15.9h-34.5C578.7,131.8,573.5,131,568.7,129.4z"/>
		<path d="M629.3,85.4c0-8.9,1.2-16.5,3.5-22.7c2.3-6.2,5.5-11.2,9.6-15c4.1-3.8,8.8-6.5,14.3-8.2c5.5-1.7,11.4-2.5,17.6-2.5
			c6.1,0,11.9,0.8,17.4,2.5c5.5,1.7,10.3,4.4,14.4,8.2c4.1,3.8,7.4,8.8,9.7,15c2.4,6.2,3.6,13.7,3.6,22.7c0,8.9-1.2,16.5-3.6,22.7
			c-2.4,6.2-5.6,11.2-9.7,15c-4.1,3.8-8.9,6.5-14.4,8.2c-5.5,1.7-11.3,2.5-17.4,2.5c-6.3,0-12.2-0.8-17.6-2.5
			c-5.5-1.7-10.3-4.4-14.3-8.2c-4.1-3.8-7.3-8.8-9.6-15C630.4,101.9,629.3,94.3,629.3,85.4z M674.4,117.9c3.6,0,7-0.5,10.3-1.5
			c3.2-1,6-2.8,8.4-5.2c2.4-2.5,4.3-5.8,5.7-10c1.4-4.2,2.1-9.4,2.1-15.7c0-6.3-0.7-11.5-2.1-15.7c-1.4-4.2-3.3-7.5-5.7-10
			c-2.4-2.5-5.2-4.2-8.4-5.2c-3.2-1-6.7-1.5-10.3-1.5c-3.7,0-7.2,0.5-10.4,1.5c-3.2,1-6,2.8-8.4,5.2c-2.4,2.5-4.3,5.8-5.6,10
			c-1.4,4.2-2.1,9.4-2.1,15.7c0,6.3,0.7,11.5,2.1,15.7c1.4,4.2,3.2,7.5,5.6,10c2.4,2.5,5.2,4.2,8.4,5.2
			C667.2,117.4,670.6,117.9,674.4,117.9z"/>
		<path d="M731.4,39h45.1c5.5,0,10.6,0.8,15.4,2.5s9,4.3,12.7,7.9c3.6,3.6,6.5,8.4,8.6,14.3c2.1,5.9,3.1,13.2,3.1,21.7
			c0,8.6-1,15.8-3.1,21.7c-2.1,5.9-4.9,10.7-8.6,14.3c-3.6,3.6-7.8,6.3-12.7,7.9c-4.8,1.6-10,2.5-15.4,2.5h-45.1V39z M773.8,115.9
			c3.3,0,6.4-0.5,9.3-1.5c2.9-1,5.5-2.6,7.6-5c2.2-2.3,3.9-5.5,5.1-9.3c1.2-3.9,1.9-8.8,1.9-14.7c0-5.9-0.6-10.8-1.9-14.7
			s-2.9-7-5.1-9.4c-2.2-2.3-4.7-4-7.6-5c-2.9-1-6-1.5-9.3-1.5h-23.9v61H773.8z"/>
		<path d="M848.5,129.4c-4.8-1.6-9-4.3-12.7-7.9c-3.6-3.6-6.5-8.4-8.6-14.3c-2.1-5.9-3.1-13.2-3.1-21.7c0-8.6,1-15.8,3.1-21.7
			c2.1-5.9,4.9-10.7,8.6-14.3c3.6-3.6,7.8-6.3,12.7-7.9c4.8-1.6,10-2.5,15.5-2.5h34.5v15.9h-31.8c-2.9,0-5.7,0.4-8.2,1.1
			c-2.6,0.8-4.9,2-7,3.7s-3.8,4-5.3,6.9c-1.5,2.9-2.5,6.5-3,10.8h55.3v15.9h-55.3c0.5,4.3,1.5,7.9,3,10.8c1.5,2.9,3.2,5.2,5.3,6.9
			c2.1,1.7,4.4,3,7,3.7c2.6,0.8,5.3,1.1,8.2,1.1h31.8v15.9H864C858.5,131.8,853.4,131,848.5,129.4z"/>
		<path d="M914.4,39h55c4.1,0,7.9,0.5,11.5,1.5c3.6,1,6.8,2.5,9.5,4.7c2.7,2.2,4.9,5,6.4,8.6c1.5,3.6,2.3,7.9,2.3,13.1
			c0,4.5-0.5,8.4-1.6,11.7c-1.1,3.3-2.5,6.1-4.4,8.4c-1.9,2.3-4.2,4.1-6.8,5.4c-2.6,1.3-5.4,2.3-8.4,2.9l21.1,36.5h-21.5L958,96H933
			v35.8h-18.6V39z M969.4,80.1c3.1,0,5.7-1,8-2.9c2.2-1.9,3.3-5.4,3.3-10.4c0-4.4-1.1-7.5-3.3-9.3c-2.2-1.8-4.9-2.7-8-2.7H933v25.2
			H969.4z"/>
	</g>
	<g>
		<polygon points="250.8,51.7 215.1,131.8 235.8,131.8 240.5,120.6 240.6,120.4 243.6,113.3 243.6,113.3 253.9,89.1 260.6,73.2 		
			"/>
		<polygon points="276.5,39 256.7,39 266.2,59.9 266.4,59.4 282.6,97.3 282.6,97.3 289.3,113.3 289.4,113.3 292.3,120.2 
			292.4,120.6 297.2,131.8 317.9,131.8 		"/>
	</g>
</g>
<polygon fill="#808285" points="1037.8,170.8 1015.3,170.8 1058.1,0 1080.6,0 "/>
</svg>
